<svg xmlns="http://www.w3.org/2000/svg" width="21" height="24" viewBox="0 0 21 24"><path fill="#fff" d="M13.93 11.4a1.23 1.23 0 1 1-1.225-1.331c.683.029 1.225.59 1.225 1.277l-.001.056v-.003zm-5.604-1.33a1.338 1.338 0 0 0-.005 2.664h.005a1.28 1.28 0 0 0 1.225-1.277l-.001-.056v.003l.002-.067c0-.685-.541-1.243-1.219-1.269h-.002zM21 2.472V24c-3.023-2.672-2.057-1.787-5.568-5.052l.636 2.22H2.459a2.467 2.467 0 0 1-2.46-2.466V2.466A2.466 2.466 0 0 1 2.458 0h16.081a2.467 2.467 0 0 1 2.46 2.466zm-3.42 11.376a16 16 0 0 0-1.77-7.086l.042.09a5.9 5.9 0 0 0-3.358-1.259l-.014-.001l-.168.192c1.15.312 2.15.837 3.002 1.535l-.014-.011a10.1 10.1 0 0 0-4.839-1.222c-1.493 0-2.911.321-4.189.898l.064-.026c-.444.204-.708.35-.708.35a8 8 0 0 1 3.1-1.56l.056-.012l-.12-.144A5.9 5.9 0 0 0 5.28 6.861l.012-.009c-1.052 2.036-1.686 4.437-1.728 6.982v.014a4.35 4.35 0 0 0 3.666 1.824h-.006s.444-.54.804-.996a3.75 3.75 0 0 1-2.093-1.406l-.007-.01c.176.124.468.284.49.3a8.64 8.64 0 0 0 4.188 1.067a8.7 8.7 0 0 0 3.36-.668l-.058.021c.528-.202.982-.44 1.404-.723l-.025.016a3.8 3.8 0 0 1-2.144 1.423l-.026.005c.36.456.792.972.792.972l.111.001a4.38 4.38 0 0 0 3.552-1.813l.009-.013z"/></svg>